# xmcd
#
# Track frame offsets:
#	150
#	11053
#	23148
#	33415
#	44965
#	56865
#	67015
#	76853
#	89740
#	102740
#	115278
#	127628
#
# Disc length: 1865 seconds
#
# Revision: 2
# Processed by: cddbd v1.4b41PL2 Copyright (c) Steve Scherf et al.
# Submitted via: audiograbber 1.80
#
DISCID=a907470c
DTITLE=Eddy Arnold - The Best Of Eddy Arnold
DYEAR=1900
DGENRE=
TTITLE0=Bouquet Of Roses
TTITLE1=Make The World Go Away
TTITLE2=Anytime
TTITLE3=I'll Hold You In My Heart
TTITLE4=I Want To Go With You
TTITLE5=The Last Word In Lonesome Is Me
TTITLE6=What's He Doin' In My World
TTITLE7=Just A Little Lovin' (Will Go A Long Way)
TTITLE8=I Really Don't Want To Know
TTITLE9=You Don't Know Me
TTITLE10=That's How Much I Love You
TTITLE11=Cattle Call
EXTD=
EXTT0=
EXTT1=
EXTT2=
EXTT3=
EXTT4=
EXTT5=
EXTT6=
EXTT7=
EXTT8=
EXTT9=
EXTT10=
EXTT11=
PLAYORDER=
